# xmcd
#
# Track frame offsets:
#	182
#	14667
#	30497
#	46692
#	59310
#	81390
#	98322
#	112102
#	132332
#	147170
#	160060
#	176452
#	190235
#	204322
#
# Disc length: 2892 seconds
#
# Revision: 0
# Processed by: cddbd v1.4PL0 Copyright (c) Steve Scherf et al.
# Submitted via: dBpowerAMP V4.0
#
DISCID=b30b4a0e
DTITLE=isabelle aubret - in love
DYEAR=1900
DGENRE=Chanson
TTITLE0=stella by sarlight
TTITLE1=body and soul
TTITLE2=remove
TTITLE3=misty
TTITLE4=cry me ariver
TTITLE5=caravan
TTITLE6=my funny valentine
TTITLE7=the nearness of you
TTITLE8=moon river
TTITLE9=foggy day
TTITLE10=over the rainbow
TTITLE11=love for sale
TTITLE12=round midnight
TTITLE13=end blues
EXTD=
EXTT0=
EXTT1=
EXTT2=
EXTT3=
EXTT4=
EXTT5=
EXTT6=
EXTT7=
EXTT8=
EXTT9=
EXTT10=
EXTT11=
EXTT12=
EXTT13=
PLAYORDER=
